<svg xmlns="http://www.w3.org/2000/svg" fill="none" viewBox="0 0 24 24"><path fill="currentColor" d="M6.9949 7.0064c-.3906.3905-.3906 1.0236 0 1.4142l3.5851 3.5851-3.5851 3.5852c-.3906.3905-.3906 1.0237 0 1.4142.3905.3905 1.0236.3905 1.4142 0l3.5851-3.5852 3.5852 3.5852c.3905.3905 1.0237.3905 1.4142 0 .3905-.3905.3905-1.0237 0-1.4142l-3.5852-3.5852 3.5852-3.5851c.3905-.3905.3905-1.0237 0-1.4142-.3906-.3906-1.0237-.3906-1.4142 0l-3.5852 3.5851-3.5851-3.5851c-.3906-.3906-1.0237-.3906-1.4142 0Z"/></svg>
