    <svg
        xmlns="http://www.w3.org/2000/svg"
        fill="currentColor"
        viewBox="0 0 133 50"
    >
        <path
            fill-rule="evenodd"
            d="M57.533 6.121c0 1.897 1.474 3.359 3.443 3.359 2.126 0 3.6-1.572 3.6-3.74 0-3.303-3.49-5.74-8.345-5.74-5.948 0-9.498 3.469-9.498 9.371v2.82H33.739v-1.138c0-7.42.76-9.318 3.818-9.318.981 0 1.858.702 1.858 1.462 0 .272-.112.542-.33 1.082-.38.704-.489 1.247-.489 1.842 0 1.897 1.472 3.359 3.439 3.359 2.127 0 3.6-1.572 3.6-3.74 0-3.303-3.487-5.74-8.35-5.74-5.948 0-9.495 3.469-9.495 9.371v2.82h-2.905v1.95h2.902v14.646c-3.43 4.991-8.272 7.47-13.327 7.47-3.324 0-5.948-1.415-7.096-3.852-.705-1.46-.977-3.195-1.087-6.88 1.798 1.627 3.765 2.333 6.272 2.333 5.46 0 9.17-3.09 9.17-7.64 0-4.717-4.09-7.912-10.31-7.912C4.036 12.306 0 16.802 0 25.093c0 8.397 4.801 13.11 13.262 13.11 3.11 0 6.116-.755 8.784-2.276 2.136-1.244 3.839-2.769 5.742-5.092v19.01l5.947-3.816V14.142h12.996v35.704l5.947-3.817V14.142h5.39v-1.95h-5.39v-1.139c0-7.42.761-9.318 3.823-9.318.983 0 1.85.702 1.85 1.462 0 .272-.106.542-.327 1.082-.381.706-.49 1.247-.49 1.842ZM10.97 14.037c2.84 0 4.637 2.165 4.637 5.583v.377c-.161 3.575-1.798 5.583-4.637 5.583-2.948 0-4.64-1.738-4.64-4.932 0-4.282 1.639-6.61 4.64-6.61ZM131.361 28.23c-2.294 4.603-4.75 6.77-7.529 6.77-2.735 0-3.989-1.897-3.989-6.123V14.142h5.633v-1.95h-5.633V1.571l-5.941 3.794v6.825h-3.02v1.95h3.02v15c-3.43 3.962-9.627 7.116-13.536 7.116-5.247 0-7.588-3.523-7.588-11.328 0-7.425 1.688-10.783 5.452-10.783 1.643 0 2.73.759 2.73 1.952v.109l-.05.27v.215l-.06.272c-.057.215-.162.81-.162 1.19 0 2.224 1.474 3.685 3.766 3.685 2.187 0 3.713-1.572 3.713-3.684 0-3.63-3.55-5.853-9.333-5.853-8.025 0-12.394 4.607-12.394 13.002 0 1.475.159 2.84.462 4.088-3.333 4.585-7.397 6.86-12.241 6.86-3.326 0-5.95-1.414-7.09-3.851-.715-1.461-.987-3.197-1.095-6.883 1.802 1.627 3.765 2.333 6.276 2.333 5.457 0 9.165-3.09 9.165-7.64 0-4.717-4.092-7.911-10.314-7.911-7.372 0-11.406 4.496-11.406 12.787 0 8.396 4.801 13.112 13.26 13.112 3.11 0 6.112-.755 8.788-2.278 1.97-1.146 3.573-2.534 5.3-4.566 1.806 4.361 5.76 6.84 11.345 6.84 4.797 0 10.91-2.733 15.105-6.867.179 1.546.622 2.6 1.431 3.557 1.358 1.568 3.494 2.38 6.168 2.38 5.129 0 8.405-2.43 11.35-8.394-.816-.05-.977-.099-1.583-.641ZM71.168 14.037c2.84 0 4.641 2.165 4.641 5.583v.377c-.165 3.575-1.804 5.583-4.64 5.583-2.944 0-4.637-1.738-4.637-4.932 0-4.282 1.637-6.61 4.636-6.61Z"
            clip-rule="evenodd"
        />
    </svg>
