<svg viewBox="0 0 916 806"><path d="M194.2.1c50.1 0 94.5 20.9 132.1 62.2 37.5 41.2 56.5 103.2 56.5 184.3 0 97.1-28.4 199.3-84.4 303.7-56 104.5-145.6 189.7-266.3 253.1l-1.3.7-12.4-24.7.6-.7c113.5-135.6 185-273.1 212.6-408.6-9.7 2.1-21.6 3.2-35.5 3.2-52.6 0-96.3-17.4-137.6-54.6C19.7 283.6 0 239.8 0 188.5c0-51.3 19.7-94.4 58.5-132C97.2 19 142.9 0 194.2.1zm-162.1 800C151.6 737 240.3 652.5 295.8 548.9c55.8-104 84-205.8 84-302.3 0-80.3-18.8-141.6-55.7-182.3C287.1 23.6 243.4 3 194.2 3S98.7 21.7 60.5 58.7C22.4 95.6 3 139.4 3 188.5c0 49.2 19.4 93.5 57.5 127.9 40.7 36.7 83.8 53.9 135.6 53.9 14.8 0 27.2-1.3 37.1-3.7l2.3-.6-.4 2.3C207.7 504.9 136 643.3 22 779.8l10.1 20.3zM725.5 1.9c51.3 0 96.4 20.9 133.9 62.2C897 105.4 916 167.4 916 248.4c0 95.8-29.6 198.1-88.1 303.7-57.2 104.5-147.4 189.6-268.1 253.1l-1.3.7-12.5-24.6.7-.7c118.4-136.9 191.8-274.4 218.2-408.7-14.1 2.3-23.9 3.4-29.9 3.4-56.4 0-101.9-17.4-143.2-54.6-40.1-36.3-60.4-80.1-60.4-130.2S551 96 589.8 58.4c38.8-37.5 84.5-56.5 135.7-56.5zM559.7 802c119.5-63.1 208.9-147.6 265.6-251.2 58.2-105.3 87.7-207 87.7-302.4 0-80.3-18.8-141.6-55.7-182.3-37-40.6-81.3-61.2-131.7-61.2-50.5 0-95.5 18.7-133.7 55.7-38.2 37-57.5 80.7-57.5 129.9s20 92.2 59.4 128c40.7 36.7 85.6 53.9 141.2 53.9 6.1 0 16.7-1.3 31.6-3.7l2.1-.4-.4 2.1C742.1 505.6 668.6 644 549.6 781.8l10.1 20.2z"/></svg>
